# xmcd
#
# Track frame offsets:
#       150
#       30196
#       60026
#       88400
#       122209
#       156060
#       182538
#       215994
#       251050
#       297487
#
# Disc length: 4600 seconds
#
# Revision: 0
# Processed by: cddbd v1.5.1PL0 Copyright (c) Steve Scherf et al.
# Submitted via: WaveLab 4.01
#
DISCID=8c11f60a
DTITLE=Various Artist - Promo Only Canada January Mainstream Club 2004
DYEAR=1900
DGENRE=
TTITLE0=Radio (Main Mix)
TTITLE1=Just For One Day (Club Mix)
TTITLE2=Dancin' (Original Mix)
TTITLE3=Deepest Blue (Original Mix)
TTITLE4=Believe (Rosabel Vocal Mix)
TTITLE5=I Want You Back (Extended Club Mix)
TTITLE6=Without Your Love (Club Mix)
TTITLE7=Fly Again (Scumfrog Club Mix)
TTITLE8=Fallen (Gabriel and Dresden Anti-Gravity Mix)
TTITLE9=As The Rush Comes (Gabriel and Dresden Sweeping Strings Mix)
EXTD=
EXTT0=
EXTT1=
EXTT2=
EXTT3=
EXTT4=
EXTT5=
EXTT6=
EXTT7=
EXTT8=
EXTT9=
PLAYORDER=
